<mxfile host="65bd71144e">
    <diagram id="cOPPHnaynSb4PC9Ppda5" name="ページ1">
        <mxGraphModel dx="1519" dy="1644" grid="1" gridSize="10" guides="1" tooltips="1" connect="1" arrows="1" fold="1" page="1" pageScale="1" pageWidth="827" pageHeight="1169" math="0" shadow="0">
            <root>
                <mxCell id="0"/>
                <mxCell id="1" parent="0"/>
                <mxCell id="150" style="edgeStyle=none;html=1;exitX=1;exitY=0.5;exitDx=0;exitDy=0;entryX=1;entryY=0.25;entryDx=0;entryDy=0;" parent="1" target="138" edge="1">
                    <mxGeometry relative="1" as="geometry">
                        <mxPoint x="-593" y="-966" as="sourcePoint"/>
                    </mxGeometry>
                </mxCell>
                <mxCell id="61" value="" style="rounded=1;whiteSpace=wrap;html=1;fillColor=#cdeb8b;strokeColor=#36393d;" parent="1" vertex="1">
                    <mxGeometry x="-622" y="-1050" width="134" height="90" as="geometry"/>
                </mxCell>
                <mxCell id="37" value="" style="rounded=1;whiteSpace=wrap;html=1;" parent="1" vertex="1">
                    <mxGeometry x="-629" y="-748" width="150" height="100" as="geometry"/>
                </mxCell>
                <mxCell id="38" value="ユーザーID&lt;br&gt;クイズセレクタ" style="rounded=1;whiteSpace=wrap;html=1;fillColor=#1ba1e2;fontColor=#ffffff;strokeColor=#006EAF;" parent="1" vertex="1">
                    <mxGeometry x="-614" y="-719" width="116" height="47" as="geometry"/>
                </mxCell>
                <mxCell id="39" value="アプリケーションスコープ" style="text;html=1;strokeColor=none;fillColor=none;align=center;verticalAlign=middle;whiteSpace=wrap;rounded=0;" parent="1" vertex="1">
                    <mxGeometry x="-629" y="-744" width="150" height="20" as="geometry"/>
                </mxCell>
                <mxCell id="40" value="&quot;userId&quot; &quot;quizSelect&quot;" style="text;html=1;strokeColor=none;fillColor=none;align=center;verticalAlign=middle;whiteSpace=wrap;rounded=0;" parent="1" vertex="1">
                    <mxGeometry x="-615" y="-669" width="130" height="20" as="geometry"/>
                </mxCell>
                <mxCell id="41" value="" style="endArrow=classic;html=1;exitX=1;exitY=0.5;exitDx=0;exitDy=0;" parent="1" source="83" edge="1">
                    <mxGeometry width="50" height="50" relative="1" as="geometry">
                        <mxPoint x="-649" y="-542" as="sourcePoint"/>
                        <mxPoint x="-540" y="-639" as="targetPoint"/>
                        <Array as="points">
                            <mxPoint x="-510" y="-659"/>
                            <mxPoint x="-520" y="-659"/>
                        </Array>
                    </mxGeometry>
                </mxCell>
                <mxCell id="43" value="" style="endArrow=classic;html=1;entryX=0.75;entryY=0;entryDx=0;entryDy=0;" parent="1" target="37" edge="1">
                    <mxGeometry width="50" height="50" relative="1" as="geometry">
                        <mxPoint x="-520" y="-974" as="sourcePoint"/>
                        <mxPoint x="-266" y="-937" as="targetPoint"/>
                        <Array as="points">
                            <mxPoint x="-500" y="-950"/>
                            <mxPoint x="-480" y="-920"/>
                            <mxPoint x="-470" y="-870"/>
                            <mxPoint x="-480" y="-800"/>
                        </Array>
                    </mxGeometry>
                </mxCell>
                <mxCell id="46" value="POST" style="text;html=1;strokeColor=none;fillColor=none;align=center;verticalAlign=middle;whiteSpace=wrap;rounded=0;" parent="1" vertex="1">
                    <mxGeometry x="-710" y="-1042" width="60" height="20" as="geometry"/>
                </mxCell>
                <mxCell id="57" value="userId=入力値&lt;br&gt;quizSelect=NULL" style="rounded=1;whiteSpace=wrap;html=1;align=left;" parent="1" vertex="1">
                    <mxGeometry x="-772" y="-1024" width="112" height="38" as="geometry"/>
                </mxCell>
                <mxCell id="58" value="" style="endArrow=classic;html=1;entryX=0;entryY=0.5;entryDx=0;entryDy=0;" parent="1" target="57" edge="1">
                    <mxGeometry width="50" height="50" relative="1" as="geometry">
                        <mxPoint x="-800" y="-1005" as="sourcePoint"/>
                        <mxPoint x="-774" y="-944" as="targetPoint"/>
                    </mxGeometry>
                </mxCell>
                <mxCell id="59" value="" style="endArrow=classic;html=1;entryX=0;entryY=0.5;entryDx=0;entryDy=0;exitX=1;exitY=0.5;exitDx=0;exitDy=0;" parent="1" source="57" target="60" edge="1">
                    <mxGeometry width="50" height="50" relative="1" as="geometry">
                        <mxPoint x="-660" y="-1005" as="sourcePoint"/>
                        <mxPoint x="-610" y="-1005" as="targetPoint"/>
                    </mxGeometry>
                </mxCell>
                <mxCell id="60" value="QuizControlServlet&lt;br&gt;doPost()" style="rounded=1;whiteSpace=wrap;html=1;" parent="1" vertex="1">
                    <mxGeometry x="-610" y="-1025" width="110" height="40" as="geometry"/>
                </mxCell>
                <mxCell id="62" value="Servlet" style="text;html=1;strokeColor=none;fillColor=none;align=center;verticalAlign=middle;whiteSpace=wrap;rounded=0;fontColor=#050505;" parent="1" vertex="1">
                    <mxGeometry x="-583" y="-1044" width="60" height="20" as="geometry"/>
                </mxCell>
                <mxCell id="76" value="" style="shape=cylinder3;whiteSpace=wrap;html=1;boundedLbl=1;backgroundOutline=1;size=15;fontColor=#050505;" parent="1" vertex="1">
                    <mxGeometry x="687" y="-810" width="140" height="130" as="geometry"/>
                </mxCell>
                <mxCell id="82" value="" style="rounded=1;whiteSpace=wrap;html=1;fillColor=#cdeb8b;strokeColor=#36393d;" parent="1" vertex="1">
                    <mxGeometry x="-623" y="-607" width="134" height="90" as="geometry"/>
                </mxCell>
                <mxCell id="83" value="JSP" style="text;html=1;strokeColor=none;fillColor=none;align=center;verticalAlign=middle;whiteSpace=wrap;rounded=0;fontColor=#050505;" parent="1" vertex="1">
                    <mxGeometry x="-582" y="-601" width="60" height="20" as="geometry"/>
                </mxCell>
                <mxCell id="30" value="quizScores.jsp" style="rounded=1;whiteSpace=wrap;html=1;" parent="1" vertex="1">
                    <mxGeometry x="-617" y="-578" width="120" height="31" as="geometry"/>
                </mxCell>
                <mxCell id="85" value="①" style="text;html=1;strokeColor=none;fillColor=none;align=center;verticalAlign=middle;whiteSpace=wrap;rounded=0;fontColor=#ffffff;" parent="1" vertex="1">
                    <mxGeometry x="-796" y="-1024" width="30" height="20" as="geometry"/>
                </mxCell>
                <mxCell id="86" value="②" style="text;html=1;strokeColor=none;fillColor=none;align=center;verticalAlign=middle;whiteSpace=wrap;rounded=0;fontColor=#0d0c0c;" parent="1" vertex="1">
                    <mxGeometry x="-629" y="-1032" width="30" height="20" as="geometry"/>
                </mxCell>
                <mxCell id="95" value="" style="endArrow=classic;html=1;fontColor=#0d0c0c;exitX=0;exitY=0.25;exitDx=0;exitDy=0;entryX=0;entryY=0;entryDx=0;entryDy=0;" parent="1" target="103" edge="1">
                    <mxGeometry width="50" height="50" relative="1" as="geometry">
                        <mxPoint x="-623" y="-984" as="sourcePoint"/>
                        <mxPoint x="-630" y="-724" as="targetPoint"/>
                        <Array as="points">
                            <mxPoint x="-640" y="-940"/>
                            <mxPoint x="-650" y="-890"/>
                            <mxPoint x="-650" y="-820"/>
                            <mxPoint x="-650" y="-660"/>
                        </Array>
                    </mxGeometry>
                </mxCell>
                <mxCell id="96" value="&quot;userId&quot; = ①のuserId" style="text;html=1;strokeColor=none;fillColor=none;align=center;verticalAlign=middle;whiteSpace=wrap;rounded=0;" parent="1" vertex="1">
                    <mxGeometry x="-573" y="-799" width="130" height="20" as="geometry"/>
                </mxCell>
                <mxCell id="97" value="保存" style="text;html=1;strokeColor=none;fillColor=none;align=center;verticalAlign=middle;whiteSpace=wrap;rounded=0;" parent="1" vertex="1">
                    <mxGeometry x="-533" y="-775" width="37" height="20" as="geometry"/>
                </mxCell>
                <mxCell id="98" value="取得" style="text;html=1;strokeColor=none;fillColor=none;align=center;verticalAlign=middle;whiteSpace=wrap;rounded=0;" parent="1" vertex="1">
                    <mxGeometry x="-532" y="-645" width="37" height="20" as="geometry"/>
                </mxCell>
                <mxCell id="99" value="&quot;userId&quot; &quot;quizSelect&quot;" style="text;html=1;strokeColor=none;fillColor=none;align=center;verticalAlign=middle;whiteSpace=wrap;rounded=0;" parent="1" vertex="1">
                    <mxGeometry x="-616" y="-627" width="130" height="20" as="geometry"/>
                </mxCell>
                <mxCell id="100" value="⑮" style="text;html=1;strokeColor=none;fillColor=none;align=center;verticalAlign=middle;whiteSpace=wrap;rounded=0;fontColor=#0d0c0c;" parent="1" vertex="1">
                    <mxGeometry x="-531" y="-606" width="30" height="20" as="geometry"/>
                </mxCell>
                <mxCell id="101" value="フォワード" style="text;html=1;strokeColor=none;fillColor=none;align=center;verticalAlign=middle;whiteSpace=wrap;rounded=0;" parent="1" vertex="1">
                    <mxGeometry x="-696" y="-644" width="67" height="20" as="geometry"/>
                </mxCell>
                <mxCell id="102" value="&lt;b&gt;【Ｃ】&lt;/b&gt;" style="text;html=1;strokeColor=none;fillColor=none;align=center;verticalAlign=middle;whiteSpace=wrap;rounded=0;fontColor=#0d0c0c;" parent="1" vertex="1">
                    <mxGeometry x="-626" y="-1057" width="43" height="35" as="geometry"/>
                </mxCell>
                <mxCell id="103" value="&lt;b&gt;【Ｖ】&lt;/b&gt;" style="text;html=1;strokeColor=none;fillColor=none;align=center;verticalAlign=middle;whiteSpace=wrap;rounded=0;fontColor=#0d0c0c;" parent="1" vertex="1">
                    <mxGeometry x="-628" y="-613" width="43" height="35" as="geometry"/>
                </mxCell>
                <mxCell id="105" value="" style="endArrow=classic;html=1;fontColor=#0d0c0c;exitX=0;exitY=0.5;exitDx=0;exitDy=0;" parent="1" source="82" edge="1">
                    <mxGeometry width="50" height="50" relative="1" as="geometry">
                        <mxPoint x="-590" y="-679" as="sourcePoint"/>
                        <mxPoint x="-750" y="-562" as="targetPoint"/>
                    </mxGeometry>
                </mxCell>
                <mxCell id="134" value="" style="rounded=1;whiteSpace=wrap;html=1;fillColor=#cdeb8b;strokeColor=#36393d;" parent="1" vertex="1">
                    <mxGeometry x="-622" y="-899" width="134" height="90" as="geometry"/>
                </mxCell>
                <mxCell id="135" value="JSP" style="text;html=1;strokeColor=none;fillColor=none;align=center;verticalAlign=middle;whiteSpace=wrap;rounded=0;fontColor=#050505;" parent="1" vertex="1">
                    <mxGeometry x="-581" y="-893" width="60" height="20" as="geometry"/>
                </mxCell>
                <mxCell id="136" value="quizSelectNG.jsp" style="rounded=1;whiteSpace=wrap;html=1;" parent="1" vertex="1">
                    <mxGeometry x="-616" y="-870" width="120" height="31" as="geometry"/>
                </mxCell>
                <mxCell id="137" value="⑨" style="text;html=1;strokeColor=none;fillColor=none;align=center;verticalAlign=middle;whiteSpace=wrap;rounded=0;fontColor=#0d0c0c;" parent="1" vertex="1">
                    <mxGeometry x="-530" y="-898" width="30" height="20" as="geometry"/>
                </mxCell>
                <mxCell id="138" value="&lt;b&gt;【Ｖ】&lt;/b&gt;" style="text;html=1;strokeColor=none;fillColor=none;align=center;verticalAlign=middle;whiteSpace=wrap;rounded=0;fontColor=#0d0c0c;" parent="1" vertex="1">
                    <mxGeometry x="-627" y="-905" width="43" height="35" as="geometry"/>
                </mxCell>
                <mxCell id="151" value="フォワード" style="text;html=1;strokeColor=none;fillColor=none;align=center;verticalAlign=middle;whiteSpace=wrap;rounded=0;" parent="1" vertex="1">
                    <mxGeometry x="-613" y="-927" width="67" height="20" as="geometry"/>
                </mxCell>
                <mxCell id="174" value="" style="rounded=1;whiteSpace=wrap;html=1;fillColor=#cdeb8b;strokeColor=#36393d;" parent="1" vertex="1">
                    <mxGeometry x="-799" y="-899" width="134" height="90" as="geometry"/>
                </mxCell>
                <mxCell id="175" value="JSP" style="text;html=1;strokeColor=none;fillColor=none;align=center;verticalAlign=middle;whiteSpace=wrap;rounded=0;fontColor=#050505;" parent="1" vertex="1">
                    <mxGeometry x="-758" y="-893" width="60" height="20" as="geometry"/>
                </mxCell>
                <mxCell id="176" value="quizSelect.jsp" style="rounded=1;whiteSpace=wrap;html=1;" parent="1" vertex="1">
                    <mxGeometry x="-793" y="-870" width="120" height="31" as="geometry"/>
                </mxCell>
                <mxCell id="177" value="③" style="text;html=1;strokeColor=none;fillColor=none;align=center;verticalAlign=middle;whiteSpace=wrap;rounded=0;fontColor=#0d0c0c;" parent="1" vertex="1">
                    <mxGeometry x="-707" y="-898" width="30" height="20" as="geometry"/>
                </mxCell>
                <mxCell id="178" value="&lt;b&gt;【Ｖ】&lt;/b&gt;" style="text;html=1;strokeColor=none;fillColor=none;align=center;verticalAlign=middle;whiteSpace=wrap;rounded=0;fontColor=#0d0c0c;" parent="1" vertex="1">
                    <mxGeometry x="-804" y="-905" width="43" height="35" as="geometry"/>
                </mxCell>
                <mxCell id="179" value="フォワード" style="text;html=1;strokeColor=none;fillColor=none;align=center;verticalAlign=middle;whiteSpace=wrap;rounded=0;" parent="1" vertex="1">
                    <mxGeometry x="-790" y="-927" width="67" height="20" as="geometry"/>
                </mxCell>
                <mxCell id="180" style="edgeStyle=none;html=1;exitX=0;exitY=0;exitDx=0;exitDy=0;entryX=0.418;entryY=-0.011;entryDx=0;entryDy=0;entryPerimeter=0;" parent="1" target="174" edge="1">
                    <mxGeometry relative="1" as="geometry">
                        <mxPoint x="-623" y="-989" as="sourcePoint"/>
                        <mxPoint x="-574" y="-886.25" as="targetPoint"/>
                    </mxGeometry>
                </mxCell>
                <mxCell id="181" value="&lt;font color=&quot;#080808&quot;&gt;④&lt;/font&gt;" style="text;html=1;strokeColor=none;fillColor=none;align=center;verticalAlign=middle;whiteSpace=wrap;rounded=0;fontColor=#ffffff;" parent="1" vertex="1">
                    <mxGeometry x="-509" y="-1032" width="30" height="20" as="geometry"/>
                </mxCell>
                <mxCell id="182" value="userId=入力値&lt;br&gt;quizSelect=All or New or Miss" style="rounded=1;whiteSpace=wrap;html=1;align=left;" parent="1" vertex="1">
                    <mxGeometry x="-813" y="-793" width="170" height="38" as="geometry"/>
                </mxCell>
                <mxCell id="183" value="POST" style="text;html=1;strokeColor=none;fillColor=none;align=center;verticalAlign=middle;whiteSpace=wrap;rounded=0;" parent="1" vertex="1">
                    <mxGeometry x="-727" y="-811" width="60" height="20" as="geometry"/>
                </mxCell>
                <mxCell id="192" value="" style="rounded=1;whiteSpace=wrap;html=1;fillColor=#cdeb8b;strokeColor=#36393d;" vertex="1" parent="1">
                    <mxGeometry x="-467" y="-1050" width="407" height="90" as="geometry"/>
                </mxCell>
                <mxCell id="193" value="" style="endArrow=classic;html=1;entryX=0;entryY=0.25;entryDx=0;entryDy=0;exitX=1;exitY=0.25;exitDx=0;exitDy=0;" edge="1" target="194" parent="1">
                    <mxGeometry width="50" height="50" relative="1" as="geometry">
                        <mxPoint x="-500" y="-1016" as="sourcePoint"/>
                        <mxPoint x="-474" y="-1005" as="targetPoint"/>
                    </mxGeometry>
                </mxCell>
                <mxCell id="194" value="QuizFinishLogic&lt;br&gt;execute()" style="rounded=1;whiteSpace=wrap;html=1;" vertex="1" parent="1">
                    <mxGeometry x="-406" y="-1025" width="110" height="40" as="geometry"/>
                </mxCell>
                <mxCell id="195" value="BO" style="text;html=1;strokeColor=none;fillColor=none;align=center;verticalAlign=middle;whiteSpace=wrap;rounded=0;fontColor=#050505;" vertex="1" parent="1">
                    <mxGeometry x="-379" y="-1044" width="60" height="20" as="geometry"/>
                </mxCell>
                <mxCell id="196" value="UserScoresDAO&lt;br&gt;findByAllScores()" style="rounded=1;whiteSpace=wrap;html=1;" vertex="1" parent="1">
                    <mxGeometry x="-220" y="-1025" width="142" height="40" as="geometry"/>
                </mxCell>
                <mxCell id="197" value="DAO" style="text;html=1;strokeColor=none;fillColor=none;align=center;verticalAlign=middle;whiteSpace=wrap;rounded=0;fontColor=#050505;" vertex="1" parent="1">
                    <mxGeometry x="-161" y="-1044" width="60" height="20" as="geometry"/>
                </mxCell>
                <mxCell id="198" value="Select" style="text;html=1;strokeColor=none;fillColor=none;align=center;verticalAlign=middle;whiteSpace=wrap;rounded=0;fontColor=#050505;" vertex="1" parent="1">
                    <mxGeometry x="-473" y="-1032" width="60" height="20" as="geometry"/>
                </mxCell>
                <mxCell id="199" value="" style="endArrow=classic;html=1;fontColor=#050505;exitX=0;exitY=0.75;exitDx=0;exitDy=0;entryX=1;entryY=0.75;entryDx=0;entryDy=0;" edge="1" source="194" parent="1">
                    <mxGeometry width="50" height="50" relative="1" as="geometry">
                        <mxPoint x="-410" y="-1045" as="sourcePoint"/>
                        <mxPoint x="-500" y="-996" as="targetPoint"/>
                    </mxGeometry>
                </mxCell>
                <mxCell id="200" value="true" style="text;html=1;strokeColor=none;fillColor=none;align=center;verticalAlign=middle;whiteSpace=wrap;rounded=0;fontColor=#050505;" vertex="1" parent="1">
                    <mxGeometry x="-472" y="-996" width="60" height="20" as="geometry"/>
                </mxCell>
                <mxCell id="201" value="" style="endArrow=classic;html=1;entryX=0;entryY=0.25;entryDx=0;entryDy=0;exitX=1;exitY=0.25;exitDx=0;exitDy=0;" edge="1" source="194" target="196" parent="1">
                    <mxGeometry width="50" height="50" relative="1" as="geometry">
                        <mxPoint x="-294" y="-1016" as="sourcePoint"/>
                        <mxPoint x="-200" y="-1015" as="targetPoint"/>
                    </mxGeometry>
                </mxCell>
                <mxCell id="202" value="Select" style="text;html=1;strokeColor=none;fillColor=none;align=center;verticalAlign=middle;whiteSpace=wrap;rounded=0;fontColor=#050505;" vertex="1" parent="1">
                    <mxGeometry x="-287" y="-1032" width="60" height="20" as="geometry"/>
                </mxCell>
                <mxCell id="203" value="" style="endArrow=classic;html=1;fontColor=#050505;exitX=0;exitY=0.75;exitDx=0;exitDy=0;entryX=1;entryY=0.75;entryDx=0;entryDy=0;" edge="1" source="196" target="194" parent="1">
                    <mxGeometry width="50" height="50" relative="1" as="geometry">
                        <mxPoint x="-200" y="-995" as="sourcePoint"/>
                        <mxPoint x="-294" y="-996" as="targetPoint"/>
                    </mxGeometry>
                </mxCell>
                <mxCell id="204" value="AllQuiz" style="text;html=1;strokeColor=none;fillColor=none;align=center;verticalAlign=middle;whiteSpace=wrap;rounded=0;fontColor=#050505;" vertex="1" parent="1">
                    <mxGeometry x="-286" y="-996" width="60" height="20" as="geometry"/>
                </mxCell>
                <mxCell id="206" value="&#10;&#10;&#10;&#10;［フィールド］&#10;・String userId&#10;・String quizSelect" style="swimlane;startSize=0;fontColor=#ffffff;align=left;" vertex="1" parent="1">
                    <mxGeometry x="-454" y="-1111" width="124" height="59" as="geometry"/>
                </mxCell>
                <mxCell id="208" value="&lt;font color=&quot;#080808&quot;&gt;⑤&lt;/font&gt;" style="text;html=1;strokeColor=none;fillColor=none;align=center;verticalAlign=middle;whiteSpace=wrap;rounded=0;fontColor=#ffffff;" vertex="1" parent="1">
                    <mxGeometry x="-301" y="-1032" width="30" height="20" as="geometry"/>
                </mxCell>
                <mxCell id="209" value="&lt;font color=&quot;#080808&quot;&gt;⑥&lt;/font&gt;" style="text;html=1;strokeColor=none;fillColor=none;align=center;verticalAlign=middle;whiteSpace=wrap;rounded=0;fontColor=#ffffff;" vertex="1" parent="1">
                    <mxGeometry x="-82" y="-1027" width="30" height="20" as="geometry"/>
                </mxCell>
                <mxCell id="210" value="&lt;font color=&quot;#080808&quot;&gt;⑦&lt;/font&gt;" style="text;html=1;strokeColor=none;fillColor=none;align=center;verticalAlign=middle;whiteSpace=wrap;rounded=0;fontColor=#ffffff;" vertex="1" parent="1">
                    <mxGeometry x="-242" y="-995" width="30" height="20" as="geometry"/>
                </mxCell>
                <mxCell id="212" value="&lt;font color=&quot;#080808&quot;&gt;⑧&lt;/font&gt;" style="text;html=1;strokeColor=none;fillColor=none;align=center;verticalAlign=middle;whiteSpace=wrap;rounded=0;fontColor=#ffffff;" vertex="1" parent="1">
                    <mxGeometry x="-430" y="-995" width="30" height="20" as="geometry"/>
                </mxCell>
                <mxCell id="214" value="&lt;b&gt;【Ｍ】&lt;/b&gt;" style="text;html=1;strokeColor=none;fillColor=none;align=center;verticalAlign=middle;whiteSpace=wrap;rounded=0;fontColor=#0d0c0c;" vertex="1" parent="1">
                    <mxGeometry x="-262" y="-1059" width="43" height="35" as="geometry"/>
                </mxCell>
                <mxCell id="215" value="userの過去成績を&lt;br&gt;全てselect&lt;br&gt;と同時に&lt;br&gt;10問終了時の&lt;br&gt;成績をinsert" style="text;html=1;strokeColor=none;fillColor=none;align=center;verticalAlign=middle;whiteSpace=wrap;rounded=0;" vertex="1" parent="1">
                    <mxGeometry x="-160" y="-959" width="117" height="78" as="geometry"/>
                </mxCell>
                <mxCell id="222" value="" style="shape=cylinder3;whiteSpace=wrap;html=1;boundedLbl=1;backgroundOutline=1;size=12;fontColor=#080808;" vertex="1" parent="1">
                    <mxGeometry x="-37" y="-1079" width="133" height="135" as="geometry"/>
                </mxCell>
                <mxCell id="223" value="&lt;div style=&quot;&quot;&gt;&lt;span style=&quot;color: rgb(255, 255, 255); background-color: initial;&quot;&gt;&lt;br&gt;&lt;/span&gt;&lt;/div&gt;&lt;div style=&quot;&quot;&gt;&lt;span style=&quot;color: rgb(255, 255, 255); background-color: initial;&quot;&gt;&lt;br&gt;&lt;/span&gt;&lt;/div&gt;&lt;div style=&quot;&quot;&gt;&lt;span style=&quot;color: rgb(255, 255, 255); background-color: initial;&quot;&gt;&lt;br&gt;&lt;/span&gt;&lt;/div&gt;&lt;div style=&quot;&quot;&gt;&lt;span style=&quot;color: rgb(255, 255, 255); background-color: initial;&quot;&gt;&lt;br&gt;&lt;/span&gt;&lt;/div&gt;&lt;div style=&quot;&quot;&gt;&lt;span style=&quot;color: rgb(255, 255, 255); background-color: initial;&quot;&gt;&lt;br&gt;&lt;/span&gt;&lt;/div&gt;&lt;div style=&quot;&quot;&gt;&lt;span style=&quot;color: rgb(255, 255, 255); background-color: initial;&quot;&gt;&lt;br&gt;&lt;/span&gt;&lt;/div&gt;&lt;div style=&quot;&quot;&gt;&lt;span style=&quot;color: rgb(255, 255, 255); background-color: initial;&quot;&gt;&lt;br&gt;&lt;/span&gt;&lt;/div&gt;&lt;div style=&quot;&quot;&gt;&lt;span style=&quot;color: rgb(255, 255, 255); background-color: initial;&quot;&gt;&lt;br&gt;&lt;/span&gt;&lt;/div&gt;&lt;div style=&quot;&quot;&gt;&lt;span style=&quot;background-color: initial; color: rgb(255, 255, 255);&quot;&gt;USER_GRADES&lt;/span&gt;&lt;/div&gt;&lt;div style=&quot;&quot;&gt;&lt;span style=&quot;background-color: initial; color: rgb(255, 255, 255);&quot;&gt;テーブル&lt;/span&gt;&lt;br&gt;&lt;/div&gt;" style="swimlane;whiteSpace=wrap;html=1;startSize=12;align=center;fillColor=#cce5ff;strokeColor=#f7f7f8;" vertex="1" parent="1">
                    <mxGeometry x="-24" y="-1050" width="110" height="90" as="geometry"/>
                </mxCell>
                <mxCell id="225" value="" style="endArrow=classic;startArrow=classic;html=1;fontColor=#ffffff;entryX=0;entryY=0.5;entryDx=0;entryDy=0;exitX=1;exitY=0.5;exitDx=0;exitDy=0;" edge="1" target="223" parent="1" source="192">
                    <mxGeometry width="50" height="50" relative="1" as="geometry">
                        <mxPoint x="-60" y="-1011" as="sourcePoint"/>
                        <mxPoint x="-14" y="-1115" as="targetPoint"/>
                    </mxGeometry>
                </mxCell>
            </root>
        </mxGraphModel>
    </diagram>
</mxfile>